<svg viewBox="-5 -13.001897059609927 109 72.2186603914426" xmlns="http://www.w3.org/2000/svg">
<circle cx="0" cy="57.63301476322321" fill="black" r="0.2"/>
<circle cx="1" cy="62.2186603914426" fill="black" r="0.2"/>
<circle cx="2" cy="51.605427209848976" fill="black" r="0.2"/>
<circle cx="3" cy="59.396617559788574" fill="black" r="0.2"/>
<circle cx="4" cy="59.01306855523064" fill="black" r="0.2"/>
<circle cx="5" cy="48.55704419905942" fill="black" r="0.2"/>
<circle cx="6" cy="54.91127085733359" fill="black" r="0.2"/>
<circle cx="7" cy="45.755479823861634" fill="black" r="0.2"/>
<circle cx="8" cy="47.0965244027727" fill="black" r="0.2"/>
<circle cx="9" cy="52.376261824738194" fill="black" r="0.2"/>
<circle cx="10" cy="44.937518311572326" fill="black" r="0.2"/>
<circle cx="11" cy="52.64595989190397" fill="black" r="0.2"/>
<circle cx="12" cy="55.669113699572165" fill="black" r="0.2"/>
<circle cx="13" cy="47.29011217435588" fill="black" r="0.2"/>
<circle cx="14" cy="41.60715662423576" fill="black" r="0.2"/>
<circle cx="15" cy="53.726770328272245" fill="black" r="0.2"/>
<circle cx="16" cy="41.44707968918563" fill="black" r="0.2"/>
<circle cx="17" cy="53.88327305846371" fill="black" r="0.2"/>
<circle cx="18" cy="43.054080193459605" fill="black" r="0.2"/>
<circle cx="19" cy="49.609661928833596" fill="black" r="0.2"/>
<circle cx="20" cy="36.603193070474454" fill="black" r="0.2"/>
<circle cx="21" cy="33.77152996140119" fill="black" r="0.2"/>
<circle cx="22" cy="41.695515824079024" fill="black" r="0.2"/>
<circle cx="23" cy="40.20712203596153" fill="black" r="0.2"/>
<circle cx="24" cy="44.332768411626525" fill="black" r="0.2"/>
<circle cx="25" cy="43.25490653744356" fill="black" r="0.2"/>
<circle cx="26" cy="43.651503856261215" fill="black" r="0.2"/>
<circle cx="27" cy="31.303875276409947" fill="black" r="0.2"/>
<circle cx="28" cy="46.026338956713715" fill="black" r="0.2"/>
<circle cx="29" cy="42.56664199861609" fill="black" r="0.2"/>
<circle cx="30" cy="31.69911618616466" fill="black" r="0.2"/>
<circle cx="31" cy="42.49018725674998" fill="black" r="0.2"/>
<circle cx="32" cy="33.64169883944987" fill="black" r="0.2"/>
<circle cx="33" cy="32.766245555487025" fill="black" r="0.2"/>
<circle cx="34" cy="40.307661576225485" fill="black" r="0.2"/>
<circle cx="35" cy="37.027548177909324" fill="black" r="0.2"/>
<circle cx="36" cy="38.76667714307372" fill="black" r="0.2"/>
<circle cx="37" cy="45.09590718988582" fill="black" r="0.2"/>
<circle cx="38" cy="44.02184368372893" fill="black" r="0.2"/>
<circle cx="39" cy="27.759602101082592" fill="black" r="0.2"/>
<circle cx="40" cy="34.618595372428814" fill="black" r="0.2"/>
<circle cx="41" cy="29.039483464343327" fill="black" r="0.2"/>
<circle cx="42" cy="30.67714819134534" fill="black" r="0.2"/>
<circle cx="43" cy="32.319659459744756" fill="black" r="0.2"/>
<circle cx="44" cy="23.119410129799903" fill="black" r="0.2"/>
<circle cx="45" cy="34.13194867060727" fill="black" r="0.2"/>
<circle cx="46" cy="27.504428916825333" fill="black" r="0.2"/>
<circle cx="47" cy="35.14149577238051" fill="black" r="0.2"/>
<circle cx="48" cy="27.793126983122228" fill="black" r="0.2"/>
<circle cx="49" cy="37.27163397020511" fill="black" r="0.2"/>
<circle cx="50" cy="36.701917236107754" fill="black" r="0.2"/>
<circle cx="51" cy="22.588172532842037" fill="black" r="0.2"/>
<circle cx="52" cy="35.023240947311535" fill="black" r="0.2"/>
<circle cx="53" cy="18.601684118817396" fill="black" r="0.2"/>
<circle cx="54" cy="26.178390894181092" fill="black" r="0.2"/>
<circle cx="55" cy="18.987906986377716" fill="black" r="0.2"/>
<circle cx="56" cy="30.99000549552942" fill="black" r="0.2"/>
<circle cx="57" cy="35.46403893397772" fill="black" r="0.2"/>
<circle cx="58" cy="16.805616128783143" fill="black" r="0.2"/>
<circle cx="59" cy="15.688599345996188" fill="black" r="0.2"/>
<circle cx="60" cy="29.658963069812557" fill="black" r="0.2"/>
<circle cx="61" cy="24.44743232983486" fill="black" r="0.2"/>
<circle cx="62" cy="24.822915931556338" fill="black" r="0.2"/>
<circle cx="63" cy="30.3289853797231" fill="black" r="0.2"/>
<circle cx="64" cy="14.584066454646432" fill="black" r="0.2"/>
<circle cx="65" cy="24.60537573345012" fill="black" r="0.2"/>
<circle cx="66" cy="23.656832361052626" fill="black" r="0.2"/>
<circle cx="67" cy="13.64943187736636" fill="black" r="0.2"/>
<circle cx="68" cy="12.054308046013531" fill="black" r="0.2"/>
<circle cx="69" cy="16.961814967801097" fill="black" r="0.2"/>
<circle cx="70" cy="9.858757515472035" fill="black" r="0.2"/>
<circle cx="71" cy="27.443353128713422" fill="black" r="0.2"/>
<circle cx="72" cy="18.68060929809903" fill="black" r="0.2"/>
<circle cx="73" cy="22.653339327189514" fill="black" r="0.2"/>
<circle cx="74" cy="18.584464175896187" fill="black" r="0.2"/>
<circle cx="75" cy="24.63343964638644" fill="black" r="0.2"/>
<circle cx="76" cy="25.03902103306199" fill="black" r="0.2"/>
<circle cx="77" cy="9.425014294290001" fill="black" r="0.2"/>
<circle cx="78" cy="6.646264541028508" fill="black" r="0.2"/>
<circle cx="79" cy="21.486157309587732" fill="black" r="0.2"/>
<circle cx="80" cy="19.10617436521163" fill="black" r="0.2"/>
<circle cx="81" cy="7.337592063856661" fill="black" r="0.2"/>
<circle cx="82" cy="20.07953916880105" fill="black" r="0.2"/>
<circle cx="83" cy="6.462458688462135" fill="black" r="0.2"/>
<circle cx="84" cy="15.786526733839644" fill="black" r="0.2"/>
<circle cx="85" cy="15.70709192491055" fill="black" r="0.2"/>
<circle cx="86" cy="8.998290205167095" fill="black" r="0.2"/>
<circle cx="87" cy="19.33384809799894" fill="black" r="0.2"/>
<circle cx="88" cy="0.7455839914908893" fill="black" r="0.2"/>
<circle cx="89" cy="15.239697655987193" fill="black" r="0.2"/>
<circle cx="90" cy="4.143053294760271" fill="black" r="0.2"/>
<circle cx="91" cy="5.788028853619679" fill="black" r="0.2"/>
<circle cx="92" cy="0.48889845451462577" fill="black" r="0.2"/>
<circle cx="93" cy="7.1509614763588445" fill="black" r="0.2"/>
<circle cx="94" cy="1.982674965237024" fill="black" r="0.2"/>
<circle cx="95" cy="11.729997843961854" fill="black" r="0.2"/>
<circle cx="96" cy="0" fill="black" r="0.2"/>
<circle cx="97" cy="12.788557487896007" fill="black" r="0.2"/>
<circle cx="98" cy="12.87124835391694" fill="black" r="0.2"/>
<circle cx="99" cy="12.776710496931763" fill="black" r="0.2"/>
<circle cx="0" cy="59.9258375773329" fill="red" fill-opacity="0.5" r="0.4"/>
<circle cx="1" cy="59.9258375773329" fill="red" fill-opacity="0.5" r="0.4"/>
<circle cx="2" cy="56.67170444162273" fill="red" fill-opacity="0.5" r="0.4"/>
<circle cx="3" cy="56.67170444162273" fill="red" fill-opacity="0.5" r="0.4"/>
<circle cx="4" cy="56.67170444162273" fill="red" fill-opacity="0.5" r="0.4"/>
<circle cx="5" cy="51.734157528196505" fill="red" fill-opacity="0.5" r="0.4"/>
<circle cx="6" cy="51.734157528196505" fill="red" fill-opacity="0.5" r="0.4"/>
<circle cx="7" cy="49.746809659070166" fill="red" fill-opacity="0.5" r="0.4"/>
<circle cx="8" cy="49.746809659070166" fill="red" fill-opacity="0.5" r="0.4"/>
<circle cx="9" cy="49.746809659070166" fill="red" fill-opacity="0.5" r="0.4"/>
<circle cx="10" cy="49.746809659070166" fill="red" fill-opacity="0.5" r="0.4"/>
<circle cx="11" cy="49.746809659070166" fill="red" fill-opacity="0.5" r="0.4"/>
<circle cx="12" cy="49.746809659070166" fill="red" fill-opacity="0.5" r="0.4"/>
<circle cx="13" cy="47.590878374902644" fill="red" fill-opacity="0.5" r="0.4"/>
<circle cx="14" cy="47.590878374902644" fill="red" fill-opacity="0.5" r="0.4"/>
<circle cx="15" cy="47.590878374902644" fill="red" fill-opacity="0.5" r="0.4"/>
<circle cx="16" cy="47.590878374902644" fill="red" fill-opacity="0.5" r="0.4"/>
<circle cx="17" cy="47.590878374902644" fill="red" fill-opacity="0.5" r="0.4"/>
<circle cx="18" cy="46.3318710611466" fill="red" fill-opacity="0.5" r="0.4"/>
<circle cx="19" cy="46.3318710611466" fill="red" fill-opacity="0.5" r="0.4"/>
<circle cx="20" cy="40.5023628138925" fill="red" fill-opacity="0.5" r="0.4"/>
<circle cx="21" cy="40.5023628138925" fill="red" fill-opacity="0.5" r="0.4"/>
<circle cx="22" cy="40.5023628138925" fill="red" fill-opacity="0.5" r="0.4"/>
<circle cx="23" cy="40.5023628138925" fill="red" fill-opacity="0.5" r="0.4"/>
<circle cx="24" cy="40.5023628138925" fill="red" fill-opacity="0.5" r="0.4"/>
<circle cx="25" cy="40.5023628138925" fill="red" fill-opacity="0.5" r="0.4"/>
<circle cx="26" cy="40.5023628138925" fill="red" fill-opacity="0.5" r="0.4"/>
<circle cx="27" cy="39.965618743913254" fill="red" fill-opacity="0.5" r="0.4"/>
<circle cx="28" cy="39.965618743913254" fill="red" fill-opacity="0.5" r="0.4"/>
<circle cx="29" cy="39.965618743913254" fill="red" fill-opacity="0.5" r="0.4"/>
<circle cx="30" cy="38.424098400963864" fill="red" fill-opacity="0.5" r="0.4"/>
<circle cx="31" cy="38.424098400963864" fill="red" fill-opacity="0.5" r="0.4"/>
<circle cx="32" cy="38.424098400963864" fill="red" fill-opacity="0.5" r="0.4"/>
<circle cx="33" cy="38.424098400963864" fill="red" fill-opacity="0.5" r="0.4"/>
<circle cx="34" cy="38.424098400963864" fill="red" fill-opacity="0.5" r="0.4"/>
<circle cx="35" cy="38.424098400963864" fill="red" fill-opacity="0.5" r="0.4"/>
<circle cx="36" cy="38.424098400963864" fill="red" fill-opacity="0.5" r="0.4"/>
<circle cx="37" cy="38.424098400963864" fill="red" fill-opacity="0.5" r="0.4"/>
<circle cx="38" cy="38.424098400963864" fill="red" fill-opacity="0.5" r="0.4"/>
<circle cx="39" cy="31.339870855666078" fill="red" fill-opacity="0.5" r="0.4"/>
<circle cx="40" cy="31.339870855666078" fill="red" fill-opacity="0.5" r="0.4"/>
<circle cx="41" cy="31.339870855666078" fill="red" fill-opacity="0.5" r="0.4"/>
<circle cx="42" cy="31.339870855666078" fill="red" fill-opacity="0.5" r="0.4"/>
<circle cx="43" cy="31.339870855666078" fill="red" fill-opacity="0.5" r="0.4"/>
<circle cx="44" cy="31.339870855666078" fill="red" fill-opacity="0.5" r="0.4"/>
<circle cx="45" cy="31.339870855666078" fill="red" fill-opacity="0.5" r="0.4"/>
<circle cx="46" cy="31.339870855666078" fill="red" fill-opacity="0.5" r="0.4"/>
<circle cx="47" cy="31.339870855666078" fill="red" fill-opacity="0.5" r="0.4"/>
<circle cx="48" cy="31.339870855666078" fill="red" fill-opacity="0.5" r="0.4"/>
<circle cx="49" cy="31.339870855666078" fill="red" fill-opacity="0.5" r="0.4"/>
<circle cx="50" cy="31.339870855666078" fill="red" fill-opacity="0.5" r="0.4"/>
<circle cx="51" cy="28.805706740076786" fill="red" fill-opacity="0.5" r="0.4"/>
<circle cx="52" cy="28.805706740076786" fill="red" fill-opacity="0.5" r="0.4"/>
<circle cx="53" cy="26.04440528577667" fill="red" fill-opacity="0.5" r="0.4"/>
<circle cx="54" cy="26.04440528577667" fill="red" fill-opacity="0.5" r="0.4"/>
<circle cx="55" cy="26.04440528577667" fill="red" fill-opacity="0.5" r="0.4"/>
<circle cx="56" cy="26.04440528577667" fill="red" fill-opacity="0.5" r="0.4"/>
<circle cx="57" cy="26.04440528577667" fill="red" fill-opacity="0.5" r="0.4"/>
<circle cx="58" cy="23.6254186976177" fill="red" fill-opacity="0.5" r="0.4"/>
<circle cx="59" cy="23.6254186976177" fill="red" fill-opacity="0.5" r="0.4"/>
<circle cx="60" cy="23.6254186976177" fill="red" fill-opacity="0.5" r="0.4"/>
<circle cx="61" cy="23.6254186976177" fill="red" fill-opacity="0.5" r="0.4"/>
<circle cx="62" cy="23.6254186976177" fill="red" fill-opacity="0.5" r="0.4"/>
<circle cx="63" cy="23.6254186976177" fill="red" fill-opacity="0.5" r="0.4"/>
<circle cx="64" cy="20.948758183049726" fill="red" fill-opacity="0.5" r="0.4"/>
<circle cx="65" cy="20.948758183049726" fill="red" fill-opacity="0.5" r="0.4"/>
<circle cx="66" cy="20.948758183049726" fill="red" fill-opacity="0.5" r="0.4"/>
<circle cx="67" cy="18.955853901599966" fill="red" fill-opacity="0.5" r="0.4"/>
<circle cx="68" cy="18.955853901599966" fill="red" fill-opacity="0.5" r="0.4"/>
<circle cx="69" cy="18.955853901599966" fill="red" fill-opacity="0.5" r="0.4"/>
<circle cx="70" cy="18.955853901599966" fill="red" fill-opacity="0.5" r="0.4"/>
<circle cx="71" cy="18.955853901599966" fill="red" fill-opacity="0.5" r="0.4"/>
<circle cx="72" cy="18.955853901599966" fill="red" fill-opacity="0.5" r="0.4"/>
<circle cx="73" cy="18.955853901599966" fill="red" fill-opacity="0.5" r="0.4"/>
<circle cx="74" cy="18.955853901599966" fill="red" fill-opacity="0.5" r="0.4"/>
<circle cx="75" cy="18.955853901599966" fill="red" fill-opacity="0.5" r="0.4"/>
<circle cx="76" cy="18.955853901599966" fill="red" fill-opacity="0.5" r="0.4"/>
<circle cx="77" cy="14.16590262752947" fill="red" fill-opacity="0.5" r="0.4"/>
<circle cx="78" cy="14.16590262752947" fill="red" fill-opacity="0.5" r="0.4"/>
<circle cx="79" cy="14.16590262752947" fill="red" fill-opacity="0.5" r="0.4"/>
<circle cx="80" cy="14.16590262752947" fill="red" fill-opacity="0.5" r="0.4"/>
<circle cx="81" cy="13.708565616328855" fill="red" fill-opacity="0.5" r="0.4"/>
<circle cx="82" cy="13.708565616328855" fill="red" fill-opacity="0.5" r="0.4"/>
<circle cx="83" cy="13.257643130075678" fill="red" fill-opacity="0.5" r="0.4"/>
<circle cx="84" cy="13.257643130075678" fill="red" fill-opacity="0.5" r="0.4"/>
<circle cx="85" cy="13.257643130075678" fill="red" fill-opacity="0.5" r="0.4"/>
<circle cx="86" cy="13.257643130075678" fill="red" fill-opacity="0.5" r="0.4"/>
<circle cx="87" cy="13.257643130075678" fill="red" fill-opacity="0.5" r="0.4"/>
<circle cx="88" cy="7.992640823739038" fill="red" fill-opacity="0.5" r="0.4"/>
<circle cx="89" cy="7.992640823739038" fill="red" fill-opacity="0.5" r="0.4"/>
<circle cx="90" cy="6.972013122719694" fill="red" fill-opacity="0.5" r="0.4"/>
<circle cx="91" cy="6.972013122719694" fill="red" fill-opacity="0.5" r="0.4"/>
<circle cx="92" cy="6.972013122719694" fill="red" fill-opacity="0.5" r="0.4"/>
<circle cx="93" cy="6.972013122719694" fill="red" fill-opacity="0.5" r="0.4"/>
<circle cx="94" cy="6.972013122719694" fill="red" fill-opacity="0.5" r="0.4"/>
<circle cx="95" cy="6.972013122719694" fill="red" fill-opacity="0.5" r="0.4"/>
<circle cx="96" cy="6.972013122719694" fill="red" fill-opacity="0.5" r="0.4"/>
<circle cx="97" cy="6.972013122719694" fill="red" fill-opacity="0.5" r="0.4"/>
<circle cx="98" cy="6.972013122719694" fill="red" fill-opacity="0.5" r="0.4"/>
<circle cx="99" cy="6.972013122719694" fill="red" fill-opacity="0.5" r="0.4"/>
</svg>